<svg id="Logo_VSH_a5_ungrouped_black" xmlns="http://www.w3.org/2000/svg" width="766.12" height="339.18" viewBox="0 0 766.12 339.18">
  <path id="Pfad_84447" data-name="Pfad 84447" d="M369.38,50.03h-15.4L329.47,98.61,304.65,50.03h-15.5l40.22,77.08Z" fill="#fc69d3"/>
  <path id="Pfad_84448" data-name="Pfad 84448" d="M429.65,112.66h-40V93.17h24.82V80.71H389.65V62.59h38.54V50.13H375.73v74.98h53.93V112.66Z" fill="#fc69d3"/>
  <path id="Pfad_84449" data-name="Pfad 84449" d="M457.75,62.59H472.2c10.57,0,16.01,5.45,16.01,11.94s-5.55,11.84-16.01,11.84H457.75Zm0,36.23h17.07l12.25,26.29h15.4L488.02,95.47c8.79-4.39,14.03-12.15,14.03-20.95,0-13.51-12.15-24.4-29.74-24.4H443.82V125.1h13.93V98.81Z" fill="#fc69d3"/>
  <path id="Pfad_84450" data-name="Pfad 84450" d="M312.51,191.78l9.01,2.41c7.43,1.99,12.87,4.19,12.87,9.95,0,5.44-5.02,9.84-16.33,9.84-9.63,0-18.54-3.23-28.8-11.94v15.82c7.01,5.22,18.33,8.69,28.69,8.69,15.71,0,30.9-8.07,30.9-23.57s-14.45-20.2-23.56-22.72l-9.01-2.52c-7.54-2.09-12.87-3.99-12.87-8.9s5.23-7.65,13.41-7.65c9.11,0,19.47,3.35,28.07,9.75V155.33a57.639,57.639,0,0,0-26.81-6.81c-14.76,0-28.91,6.37-28.91,21.16,0,13.72,12.04,19.06,23.36,22.09" fill="#fc69d3"/>
  <path id="Pfad_84451" data-name="Pfad 84451" d="M404.31,226.56a52.681,52.681,0,0,0,25.34-6.61V204.87c-6.08,5.24-16.03,9.11-25.56,9.11-16.33,0-28.06-11.41-28.06-26.39s11.72-26.39,28.06-26.39c9.53,0,19.48,3.88,25.56,9.11V155.24a52.7,52.7,0,0,0-25.34-6.6c-23.67,0-42.2,16.76-42.2,38.96s18.54,38.97,42.2,38.97" fill="#fc69d3"/>
  <path id="Pfad_84452" data-name="Pfad 84452" d="M457.66,193.35h39.97v31.73h13.93V150.09H497.63v30.38H457.66V150.09H443.73v74.99h13.93V193.35Z" fill="#fc69d3"/>
  <path id="Pfad_84453" data-name="Pfad 84453" d="M599.38,150.1,584.3,191.78l-16.76-43.25-16.76,43.25L535.7,150.1H520.52l30.16,76.56,16.76-42.41,16.75,42.41,30.37-76.56H599.38Z" fill="#fc69d3"/>
  <path id="Pfad_84454" data-name="Pfad 84454" d="M654.95,214.09c-15.08,0-26.82-11.51-26.82-26.5s11.73-26.49,26.82-26.49,26.71,11.52,26.71,26.49-11.63,26.5-26.71,26.5m0-65.46c-22.63,0-40.84,17.49-40.84,38.96s18.22,38.97,40.84,38.97,40.84-17.39,40.84-38.97-18.33-38.96-40.84-38.96" fill="#fc69d3"/>
  <path id="Pfad_84455" data-name="Pfad 84455" d="M666.36,144.96c4.18,0,8.27-2.93,8.27-7.33s-4.09-7.23-8.27-7.23-8.28,2.94-8.28,7.23,4.09,7.33,8.28,7.33" fill="#fc69d3"/>
  <path id="Pfad_84456" data-name="Pfad 84456" d="M643.43,144.96c4.19,0,8.27-2.93,8.27-7.33s-4.08-7.23-8.27-7.23-8.28,2.94-8.28,7.23,4.08,7.33,8.28,7.33" fill="#fc69d3"/>
  <path id="Pfad_84457" data-name="Pfad 84457" d="M735.84,186.34H721.39V162.56h14.45c10.58,0,16.03,5.44,16.03,11.94s-5.55,11.84-16.03,11.84m15.82,9.11c8.8-4.4,14.03-12.15,14.03-20.95,0-13.51-12.15-24.4-29.74-24.4H707.47v74.98H721.4V198.8h17.07l12.25,26.28h15.4l-14.45-29.63Z" fill="#fc69d3"/>
  <path id="Pfad_84458" data-name="Pfad 84458" d="M343.41,280.59H303.09V250.22H289.16v74.99h13.93V293.47h40.32v31.74h13.93V250.22H343.41Z" fill="#fc69d3"/>
  <path id="Pfad_84459" data-name="Pfad 84459" d="M390.8,301.23l12.57-24.82,12.57,24.82Zm-27.43,23.98h15.5l5.75-11.53h37.59l5.87,11.53h15.51l-40.11-77.08-40.1,77.08Z" fill="#fc69d3"/>
  <path id="Pfad_84460" data-name="Pfad 84460" d="M497.81,291.28c0,14.57-8.69,22.52-20,22.52s-20.11-8.17-20.11-22.52V250.02H443.77v42.11c0,21.36,14.88,34.23,34.04,34.23s33.93-13.19,33.93-34.23V250.02H497.81v41.26Z" fill="#fc69d3"/>
  <path id="Pfad_84461" data-name="Pfad 84461" d="M560.23,280.18l-9.02-2.51c-7.54-2.09-12.87-3.97-12.87-8.9s5.23-7.64,13.41-7.64c9.11,0,19.48,3.35,28.06,9.73V255.27A57.41,57.41,0,0,0,553,248.45c-14.77,0-28.9,6.39-28.9,21.16,0,13.72,12.04,19.06,23.35,22.09l9.01,2.41c7.43,1.99,12.87,4.19,12.87,9.96,0,5.44-5.02,9.84-16.34,9.84-9.63,0-18.54-3.25-28.8-11.94v15.82c7.02,5.22,18.33,8.68,28.7,8.68,15.71,0,30.9-8.06,30.9-23.56s-14.45-20.21-23.56-22.73" fill="#fc69d3"/>
  <path id="Pfad_84462" data-name="Pfad 84462" d="M114.15,125.02l-24.99-.01v25.01h24.99v-25Z" fill="#fc69d3"/>
  <path id="Pfad_84463" data-name="Pfad 84463" d="M14.17,300.01v-175H39.16V100h25V75H89.15V50.01h25V75h24.99v25h24.99v25.01h24.99V250.03H164.13V275h24.99v50.02H139.13V250.03H39.16v49.99H89.15v25.02H14.17V300.02ZM0,339.18H239.13V0H0Z" fill="#fc69d3"/>
</svg>
